<svg xmlns="http://www.w3.org/2000/svg" viewBox="0 0 812 600" width="812" height="600"><rect width="812" height="600" fill="#fdfdfb"/><rect x="8" y="8" width="796" height="584" fill="none" stroke="#ccc" stroke-width="1"/><line x1="70" y1="70" x2="116.19999999999999" y2="70" stroke="#1a1d24" stroke-width="10.08" stroke-linecap="square"/><line x1="191.8" y1="70" x2="292.6" y2="70" stroke="#1a1d24" stroke-width="10.08" stroke-linecap="square"/><line x1="393.40000000000003" y1="70" x2="439.6" y2="70" stroke="#1a1d24" stroke-width="10.08" stroke-linecap="square"/><line x1="540.4" y1="70" x2="620.1999999999999" y2="70" stroke="#1a1d24" stroke-width="10.08" stroke-linecap="square"/><line x1="695.8000000000001" y1="70" x2="742" y2="70" stroke="#1a1d24" stroke-width="10.08" stroke-linecap="square"/><line x1="116.19999999999999" y1="67" x2="191.8" y2="67" stroke="#1a1d24" stroke-width="1.4"/><line x1="116.19999999999999" y1="73" x2="191.8" y2="73" stroke="#1a1d24" stroke-width="1.4"/><line x1="292.6" y1="67" x2="393.40000000000003" y2="67" stroke="#1a1d24" stroke-width="1.4"/><line x1="292.6" y1="73" x2="393.40000000000003" y2="73" stroke="#1a1d24" stroke-width="1.4"/><line x1="439.6" y1="67" x2="540.4" y2="67" stroke="#1a1d24" stroke-width="1.4"/><line x1="439.6" y1="73" x2="540.4" y2="73" stroke="#1a1d24" stroke-width="1.4"/><line x1="620.1999999999999" y1="67" x2="695.8000000000001" y2="67" stroke="#1a1d24" stroke-width="1.4"/><line x1="620.1999999999999" y1="73" x2="695.8000000000001" y2="73" stroke="#1a1d24" stroke-width="1.4"/><line x1="742" y1="70" x2="742" y2="107.80000000000001" stroke="#1a1d24" stroke-width="10.08" stroke-linecap="square"/><line x1="742" y1="175" x2="742" y2="250.6" stroke="#1a1d24" stroke-width="10.08" stroke-linecap="square"/><line x1="742" y1="317.79999999999995" x2="742" y2="393.40000000000003" stroke="#1a1d24" stroke-width="10.08" stroke-linecap="square"/><line x1="742" y1="452.2" x2="742" y2="490" stroke="#1a1d24" stroke-width="10.08" stroke-linecap="square"/><line x1="745" y1="107.80000000000001" x2="745" y2="175" stroke="#1a1d24" stroke-width="1.4"/><line x1="739" y1="107.80000000000001" x2="739" y2="175" stroke="#1a1d24" stroke-width="1.4"/><line x1="745" y1="250.6" x2="745" y2="317.79999999999995" stroke="#1a1d24" stroke-width="1.4"/><line x1="739" y1="250.6" x2="739" y2="317.79999999999995" stroke="#1a1d24" stroke-width="1.4"/><line x1="745" y1="393.40000000000003" x2="745" y2="452.2" stroke="#1a1d24" stroke-width="1.4"/><line x1="739" y1="393.40000000000003" x2="739" y2="452.2" stroke="#1a1d24" stroke-width="1.4"/><line x1="742" y1="490" x2="691.6" y2="490" stroke="#1a1d24" stroke-width="10.08" stroke-linecap="square"/><line x1="624.4" y1="490" x2="301" y2="490" stroke="#1a1d24" stroke-width="10.08" stroke-linecap="square"/><line x1="275.79999999999995" y1="490" x2="200.2" y2="490" stroke="#1a1d24" stroke-width="10.08" stroke-linecap="square"/><line x1="107.80000000000001" y1="490" x2="70" y2="490" stroke="#1a1d24" stroke-width="10.08" stroke-linecap="square"/><line x1="691.6" y1="493" x2="624.4" y2="493" stroke="#1a1d24" stroke-width="1.4"/><line x1="691.6" y1="487" x2="624.4" y2="487" stroke="#1a1d24" stroke-width="1.4"/><line x1="301" y1="493" x2="275.79999999999995" y2="493" stroke="#1a1d24" stroke-width="1.4"/><line x1="301" y1="487" x2="275.79999999999995" y2="487" stroke="#1a1d24" stroke-width="1.4"/><line x1="200.2" y1="493" x2="107.80000000000001" y2="493" stroke="#1a1d24" stroke-width="1.4"/><line x1="200.2" y1="487" x2="107.80000000000001" y2="487" stroke="#1a1d24" stroke-width="1.4"/><line x1="70" y1="490" x2="70" y2="435.4" stroke="#1a1d24" stroke-width="10.08" stroke-linecap="square"/><line x1="70" y1="334.59999999999997" x2="70" y2="208.6" stroke="#1a1d24" stroke-width="10.08" stroke-linecap="square"/><line x1="70" y1="141.39999999999998" x2="70" y2="70" stroke="#1a1d24" stroke-width="10.08" stroke-linecap="square"/><line x1="67" y1="435.4" x2="67" y2="334.59999999999997" stroke="#1a1d24" stroke-width="1.4"/><line x1="73" y1="435.4" x2="73" y2="334.59999999999997" stroke="#1a1d24" stroke-width="1.4"/><line x1="70" y1="208.6" x2="137.20000000000002" y2="208.6" stroke="#1a1d24" stroke-width="10.08" stroke-linecap="square"/><path d="M 137.20000000000002 208.6 A 67.20000000000002 67.20000000000002 0 0 0 70 141.39999999999998" fill="none" stroke="#1a1d24" stroke-width="1" opacity="0.8"/><text x="70" y="179" font-family="Helvetica, Arial, sans-serif" font-size="9" fill="#666" text-anchor="middle">ENTRY</text><line x1="238" y1="70" x2="238" y2="128.8" stroke="#1a1d24" stroke-width="5.04" stroke-linecap="square"/><line x1="238" y1="221.20000000000002" x2="238" y2="490" stroke="#1a1d24" stroke-width="5.04" stroke-linecap="square"/><line x1="70" y1="280" x2="133" y2="280" stroke="#1a1d24" stroke-width="5.04" stroke-linecap="square"/><line x1="175" y1="280" x2="238" y2="280" stroke="#1a1d24" stroke-width="5.04" stroke-linecap="square"/><line x1="133" y1="280" x2="133" y2="322" stroke="#1a1d24" stroke-width="5.04" stroke-linecap="square"/><path d="M 133 322 A 42 42 0 0 0 175 280" fill="none" stroke="#1a1d24" stroke-width="1" opacity="0.8"/><line x1="574" y1="70" x2="574" y2="122.5" stroke="#1a1d24" stroke-width="5.04" stroke-linecap="square"/><line x1="574" y1="160.3" x2="574" y2="265.29999999999995" stroke="#1a1d24" stroke-width="5.04" stroke-linecap="square"/><line x1="574" y1="303.1" x2="574" y2="393.40000000000003" stroke="#1a1d24" stroke-width="5.04" stroke-linecap="square"/><line x1="574" y1="452.2" x2="574" y2="490" stroke="#1a1d24" stroke-width="5.04" stroke-linecap="square"/><line x1="574" y1="122.5" x2="536.2" y2="122.5" stroke="#1a1d24" stroke-width="5.04" stroke-linecap="square"/><path d="M 536.2 122.5 A 37.8 37.8 0 0 0 574 160.3" fill="none" stroke="#1a1d24" stroke-width="1" opacity="0.8"/><line x1="574" y1="265.29999999999995" x2="536.2" y2="265.29999999999995" stroke="#1a1d24" stroke-width="5.04" stroke-linecap="square"/><path d="M 536.2 265.29999999999995 A 37.80000000000001 37.80000000000001 0 0 0 574 303.1" fill="none" stroke="#1a1d24" stroke-width="1" opacity="0.8"/><line x1="574" y1="212.79999999999998" x2="742" y2="212.79999999999998" stroke="#1a1d24" stroke-width="5.04" stroke-linecap="square"/><line x1="574" y1="355.59999999999997" x2="742" y2="355.59999999999997" stroke="#1a1d24" stroke-width="5.04" stroke-linecap="square"/><line x1="238" y1="422.8" x2="271.6" y2="422.8" stroke="#1a1d24" stroke-width="5.04" stroke-linecap="square"/><line x1="305.2" y1="422.8" x2="338.8" y2="422.8" stroke="#1a1d24" stroke-width="5.04" stroke-linecap="square"/><line x1="271.6" y1="422.8" x2="271.6" y2="389.2" stroke="#1a1d24" stroke-width="5.04" stroke-linecap="square"/><path d="M 271.6 389.2 A 33.60000000000001 33.60000000000001 0 0 1 305.2 422.8" fill="none" stroke="#1a1d24" stroke-width="1" opacity="0.8"/><line x1="338.8" y1="422.8" x2="338.8" y2="490" stroke="#1a1d24" stroke-width="5.04" stroke-linecap="square"/><text x="154" y="171.99999999999994" font-family="Helvetica, Arial, sans-serif" font-size="12.5" font-weight="600" fill="#1a1d24" text-anchor="middle">RECEPTION</text><text x="154" y="186.99999999999994" font-family="Helvetica, Arial, sans-serif" font-size="10.5" fill="#777" text-anchor="middle">18.2 m²</text><text x="154" y="382.0000000000001" font-family="Helvetica, Arial, sans-serif" font-size="12.5" font-weight="600" fill="#1a1d24" text-anchor="middle">MEETING ROOM</text><text x="154" y="397.0000000000001" font-family="Helvetica, Arial, sans-serif" font-size="10.5" fill="#777" text-anchor="middle">18.2 m²</text><text x="411.98822476242947" y="267.91253270899324" font-family="Helvetica, Arial, sans-serif" font-size="12.5" font-weight="600" fill="#1a1d24" text-anchor="middle">OPEN PLAN</text><text x="411.98822476242947" y="282.91253270899324" font-family="Helvetica, Arial, sans-serif" font-size="10.5" fill="#777" text-anchor="middle">72.6 m²</text><text x="658" y="138.40000000000003" font-family="Helvetica, Arial, sans-serif" font-size="12.5" font-weight="600" fill="#1a1d24" text-anchor="middle">OFFICE 1</text><text x="658" y="153.40000000000003" font-family="Helvetica, Arial, sans-serif" font-size="10.5" fill="#777" text-anchor="middle">12.2 m²</text><text x="658" y="281.20000000000005" font-family="Helvetica, Arial, sans-serif" font-size="12.5" font-weight="600" fill="#1a1d24" text-anchor="middle">OFFICE 2</text><text x="658" y="296.20000000000005" font-family="Helvetica, Arial, sans-serif" font-size="10.5" fill="#777" text-anchor="middle">12.2 m²</text><text x="658" y="419.79999999999995" font-family="Helvetica, Arial, sans-serif" font-size="12.5" font-weight="600" fill="#1a1d24" text-anchor="middle">KITCHENETTE</text><text x="658" y="434.79999999999995" font-family="Helvetica, Arial, sans-serif" font-size="10.5" fill="#777" text-anchor="middle">11.4 m²</text><text x="288.4" y="453.4" font-family="Helvetica, Arial, sans-serif" font-size="12.5" font-weight="600" fill="#1a1d24" text-anchor="middle">WC</text><text x="288.4" y="468.4" font-family="Helvetica, Arial, sans-serif" font-size="10.5" fill="#777" text-anchor="middle">3.1 m²</text><g stroke="#888" stroke-width="1"><line x1="70" y1="42" x2="742" y2="42"/><line x1="70" y1="37" x2="70" y2="47"/><line x1="742" y1="37" x2="742" y2="47"/></g><text x="406" y="36" font-family="Helvetica, Arial, sans-serif" font-size="11" fill="#555" text-anchor="middle">16.00 m</text><g stroke="#888" stroke-width="1"><line x1="42" y1="70" x2="42" y2="490"/><line x1="37" y1="70" x2="47" y2="70"/><line x1="37" y1="490" x2="47" y2="490"/></g><text x="34" y="280" font-family="Helvetica, Arial, sans-serif" font-size="11" fill="#555" text-anchor="middle" transform="rotate(-90 34 280)">10.00 m</text><text x="70" y="582" font-family="Helvetica, Arial, sans-serif" font-size="13" font-weight="700" fill="#1a1d24">STUDIO OFFICE FLOOR</text><text x="742" y="582" font-family="Helvetica, Arial, sans-serif" font-size="10" fill="#888" text-anchor="end">SCALE 1:100 · ALL DIMENSIONS IN METERS</text></svg>